<svg id="visual" viewBox="0 0 960 540" width="960" height="540" xmlns="http://www.w3.org/2000/svg" xmlns:xlink="http://www.w3.org/1999/xlink" version="1.1"><rect x="0" y="0" width="960" height="540" fill="#FFF"></rect><defs><linearGradient id="grad1_0" x1="43.8%" y1="0%" x2="100%" y2="100%"><stop offset="14.444444444444446%" stop-color="#ffffff" stop-opacity="1"></stop><stop offset="85.55555555555554%" stop-color="#ffffff" stop-opacity="1"></stop></linearGradient></defs><defs><linearGradient id="grad2_0" x1="0%" y1="0%" x2="56.3%" y2="100%"><stop offset="14.444444444444446%" stop-color="#ffffff" stop-opacity="1"></stop><stop offset="85.55555555555554%" stop-color="#ffffff" stop-opacity="1"></stop></linearGradient></defs><g transform="translate(960, 0)"><path d="M0 486C-55.6 458.1 -111.2 430.2 -169.5 409.3C-227.9 388.3 -289.1 374.3 -338.7 338.7C-388.3 303.1 -426.4 246 -449 186C-471.6 125.9 -478.8 63 -486 0L0 0Z" fill="#264C90"></path></g><g transform="translate(0, 540)"><path d="M0 -486C59.7 -455.3 119.5 -424.7 160.3 -387.1C201.2 -349.5 223.1 -305.1 275.1 -275.1C327 -245 408.9 -229.4 449 -186C489.2 -142.5 487.6 -71.3 486 0L0 0Z" fill="#264C90"></path></g></svg>