<svg id="visual" viewBox="0 0 900 600" width="900" height="600" xmlns="http://www.w3.org/2000/svg" xmlns:xlink="http://www.w3.org/1999/xlink" version="1.1"><path d="M0 73L82 73L82 79L164 79L164 91L245 91L245 67L327 67L327 91L409 91L409 49L491 49L491 61L573 61L573 103L655 103L655 97L736 97L736 43L818 43L818 49L900 49L900 79L900 0L900 0L818 0L818 0L736 0L736 0L655 0L655 0L573 0L573 0L491 0L491 0L409 0L409 0L327 0L327 0L245 0L245 0L164 0L164 0L82 0L82 0L0 0Z" fill="#264c90"></path><path d="M0 211L82 211L82 181L164 181L164 145L245 145L245 193L327 193L327 199L409 199L409 109L491 109L491 121L573 121L573 187L655 187L655 175L736 175L736 97L818 97L818 217L900 217L900 133L900 77L900 47L818 47L818 41L736 41L736 95L655 95L655 101L573 101L573 59L491 59L491 47L409 47L409 89L327 89L327 65L245 65L245 89L164 89L164 77L82 77L82 71L0 71Z" fill="#006497"></path><path d="M0 367L82 367L82 349L164 349L164 265L245 265L245 409L327 409L327 367L409 367L409 307L491 307L491 253L573 253L573 355L655 355L655 271L736 271L736 391L818 391L818 433L900 433L900 235L900 131L900 215L818 215L818 95L736 95L736 173L655 173L655 185L573 185L573 119L491 119L491 107L409 107L409 197L327 197L327 191L245 191L245 143L164 143L164 179L82 179L82 209L0 209Z" fill="#007895"></path><path d="M0 445L82 445L82 427L164 427L164 313L245 313L245 475L327 475L327 421L409 421L409 349L491 349L491 355L573 355L573 409L655 409L655 385L736 385L736 505L818 505L818 493L900 493L900 331L900 233L900 431L818 431L818 389L736 389L736 269L655 269L655 353L573 353L573 251L491 251L491 305L409 305L409 365L327 365L327 407L245 407L245 263L164 263L164 347L82 347L82 365L0 365Z" fill="#008989"></path><path d="M0 601L82 601L82 601L164 601L164 601L245 601L245 601L327 601L327 601L409 601L409 601L491 601L491 601L573 601L573 601L655 601L655 601L736 601L736 601L818 601L818 601L900 601L900 601L900 329L900 491L818 491L818 503L736 503L736 383L655 383L655 407L573 407L573 353L491 353L491 347L409 347L409 419L327 419L327 473L245 473L245 311L164 311L164 425L82 425L82 443L0 443Z" fill="#44956d"></path></svg>