<svg id="visual" viewBox="0 0 960 540" width="960" height="540" xmlns="http://www.w3.org/2000/svg" xmlns:xlink="http://www.w3.org/1999/xlink" version="1.1"><rect x="0" y="0" width="960" height="540" fill="#fff"></rect><path d="M869 540L857.5 517.5C846 495 823 450 817.3 405C811.7 360 823.3 315 817.8 270C812.3 225 789.7 180 791 135C792.3 90 817.7 45 830.3 22.5L843 0L960 0L960 22.5C960 45 960 90 960 135C960 180 960 225 960 270C960 315 960 360 960 405C960 450 960 495 960 517.5L960 540Z" fill="#EDFDFAFF" stroke-linecap="round" stroke-linejoin="miter"></path></svg>